<svg xmlns="http://www.w3.org/2000/svg" xmlns:xlink="http://www.w3.org/1999/xlink" viewBox="0 0 512 512">
<g stroke="null">
  <path stroke="null" d="m506.634802,199.39278c-6.780055,0 -12.813155,-0.285713 -18.788797,0.114285c-4.596648,0.285713 -6.837513,-1.428567 -8.848547,-5.485699c-25.051729,-49.371292 -50.275833,-98.628299 -75.499936,-147.885305c-6.722597,-13.199964 -13.56011,-26.342784 -20.627456,-40.057032c-9.65296,6.742839 -18.731339,13.314249 -28.097008,19.428518c-3.562402,2.342851 -4.366815,4.342845 -2.815447,8.342834c3.504944,8.971404 6.435307,18.171378 9.710418,27.428496c-1.723743,1.085711 -2.930363,1.885709 -4.251899,2.628564c-53.321112,28.57135 -106.872056,56.7427 -159.848419,85.885477c-10.917038,5.999983 -19.765585,7.657122 -29.705835,-0.342856c-1.608827,-1.314282 -5.171229,-1.828566 -6.952429,-0.914283c-9.595502,4.857129 -18.903713,10.285686 -28.556673,15.6571c2.643072,8.399977 5.343603,16.285669 7.52701,24.34279c0.632039,2.457136 0.689497,5.542842 -0.28729,7.885692c-13.904859,33.371336 -28.097008,66.628387 -41.886951,99.999724c-1.781201,4.399988 -4.136983,5.542842 -8.618714,5.485699c-17.122512,-0.228571 -34.245024,0.114285 -51.367537,-0.171428c-16.605389,-0.228571 -26.085975,12.91425 -25.568852,25.485644c0.804413,19.599946 0.114916,39.257034 0.28729,58.85698c0.114916,13.485677 6.894971,20.285658 20.340165,20.514229c11.491619,0.171428 22.983238,0 34.474857,0l32.119075,0c-9.825334,10.114258 -11.778909,21.142799 -9.135837,33.085623c2.528156,11.657111 9.193295,16.857096 21.029663,16.857096c26.200891,0.057143 52.45924,-0.057143 78.660131,0.057143c11.031954,0.057143 20.110333,-3.371419 25.109187,-13.77139c5.228687,-10.914256 2.930363,-23.599935 -5.286145,-32.39991c-0.91933,-0.971426 -1.608827,-2.11428 -2.815447,-3.828561l8.044133,0c26.028517,0 52.057034,0.057143 78.028092,-0.057143c13.27282,-0.057143 18.444048,-5.371414 18.38659,-18.514235c0,-26.742783 0.057458,-53.485566 -0.172374,-80.22835c0,-3.199991 -1.034246,-6.857124 -2.70053,-9.542831c-10.802122,-17.14281 -22.063908,-33.999906 -32.923488,-51.085573c-2.125949,-3.371419 -4.596648,-4.399988 -8.44634,-4.399988c-23.21307,0.171428 -46.368682,0.057143 -69.581753,0.057143c-2.298324,0 -4.596648,0.171428 -7.067346,0.285713c-0.114916,2.342851 -0.344749,4.057132 -0.344749,5.71427c0,17.257095 0.114916,34.51419 -0.172374,51.771285c-0.057458,1.885709 -2.125949,5.314271 -3.332569,5.314271c-17.869467,0.342856 -35.796393,0.228571 -54.412816,0.228571c0.976788,-2.342851 1.551369,-3.942846 2.298324,-5.371414c18.731339,-35.657044 37.40522,-71.371231 56.423849,-106.799705c1.551369,-2.857135 5.515977,-5.257128 8.848547,-6.228554c45.794101,-13.371392 91.703119,-26.514212 137.612136,-39.657033c15.915892,-4.571416 31.831784,-9.085689 47.805135,-13.599962c16.260641,23.028508 31.199745,46.342729 48.437174,67.885527c14.307066,17.828522 21.202037,36.399899 18.731339,59.199836c-0.91933,8.457119 -1.49391,15.771385 -8.101591,21.885654c-3.61986,3.314277 -6.205474,7.714264 -9.250753,11.657111c-3.90715,4.971415 -3.102737,9.599973 -0.057458,14.914244c2.470698,4.285702 4.022067,9.257117 5.228687,14.057104c1.149162,4.22856 1.321536,8.742833 2.011033,13.885676c1.49391,-1.085711 2.41324,-1.599996 3.102737,-2.342851c15.226395,-15.6571 29.648377,-32.114197 45.851559,-46.685585c12.181116,-10.914256 17.065054,-22.571366 15.743518,-38.74275c-1.321536,-16.628525 -0.28729,-33.485622 -0.28729,-50.79986zm-297.460556,62.914112c1.49391,-0.171428 3.160195,-0.571427 4.769022,-0.571427c14.536898,-0.057143 29.073796,-0.228571 43.553236,0.228571c2.643072,0.057143 6.148016,2.057137 7.52701,4.22856c9.423128,14.457103 18.903713,28.914206 27.235137,43.999878c2.757989,4.971415 2.125949,11.771396 3.160195,18.171378l-86.302058,0c0.057458,-21.828511 0.057458,-43.714165 0.057458,-66.05696zm115.433312,180.628072c-34.245024,-0.342856 -68.432591,-0.171428 -102.735073,0c-1.723743,0 -4.251899,1.257139 -5.056312,2.685707c-5.573435,10.114258 -14.47944,13.657105 -25.396478,13.657105c-27.982092,0.057143 -55.906726,-0.057143 -83.83136,0.057143c-9.020921,0.057143 -15.456227,-3.999989 -19.018629,-11.942824c-1.608827,-3.59999 -3.504944,-4.685701 -7.23972,-4.628559c-16.030808,0.171428 -32.061617,-0.114285 -48.092425,0.171428c-18.329132,0.285713 -30.337874,12.114252 -28.786505,29.142777c0.229832,2.342851 0,4.742844 0.057458,7.085695c0.229832,16.057098 10.917038,26.685641 26.890388,26.685641l145.598812,0l0,0.057143l146.920348,0c14.709272,0 25.33902,-8.742833 27.120221,-23.257079c0.689497,-5.657127 0.28729,-11.657111 -0.632039,-17.314238c-2.355782,-14.228532 -11.261787,-22.22851 -25.798684,-22.399938z"/>
</g>
</svg>